<svg xmlns="http://www.w3.org/2000/svg" viewBox="0 0 240 180" fill="none">
  <title>Disinfection cabin with entrance and spray nozzles</title>
  <ellipse cx="121" cy="160" rx="77" ry="10" fill="#edf2ee"/>
  <path d="M66 40 101 23h75v123l-35 16H66Z" fill="#e3ece7" stroke="#537963" stroke-width="3" stroke-linejoin="round"/>
  <path d="m141 40 35-17M141 40v122M66 40h75" stroke="#537963" stroke-width="3"/>
  <path d="M78 58h51v94H78Z" fill="#f8fcfa" stroke="#799e89" stroke-width="3"/>
  <path d="m148 53 19-9v88l-19 9Z" fill="#c5ded3" stroke="#799e89" stroke-width="2"/>
  <path d="M83 67v67m41-67v67M83 68h41" stroke="#507c66" stroke-width="3"/>
  <path d="m85 81 11 7m-11 11 11 7m26-25-11 7m11 11-11 7" stroke="#76bccc" stroke-width="3" stroke-linecap="round" stroke-dasharray="2 4"/>
  <path d="M88 140h32v10H88Z" fill="#83a08c"/>
  <rect x="89" y="43" width="28" height="10" rx="3" fill="#2d7252"/>
  <path d="M103 45v6m-3-3h6" stroke="white" stroke-width="2"/>
</svg>
